<?xml version="1.0" standalone="no"?>
<!DOCTYPE svg PUBLIC "-//W3C//DTD SVG 20010904//EN"
 "http://www.w3.org/TR/2001/REC-SVG-20010904/DTD/svg10.dtd">
<svg version="1.0" xmlns="http://www.w3.org/2000/svg"
 width="602.000000pt" height="215.000000pt" viewBox="0 0 602.000000 215.000000"
 preserveAspectRatio="xMidYMid meet">

<g transform="translate(0.000000,215.000000) scale(0.100000,-0.100000)"
fill="#000000" stroke="none">
<path d="M121 2073 c0 -5 47 -87 103 -183 l102 -175 951 -3 951 -2 83 142 c45
79 93 162 106 186 l25 42 -1161 0 c-639 0 -1161 -3 -1160 -7z"/>
<path d="M5023 1929 c-164 -16 -292 -78 -418 -204 -130 -129 -217 -290 -251
-464 -21 -102 -20 -295 1 -396 52 -251 222 -484 430 -586 108 -53 181 -70 300
-70 125 0 215 20 324 73 195 96 276 211 304 431 l11 87 118 0 118 0 0 30 0 30
-430 0 -430 0 0 -30 0 -30 141 0 142 0 -6 -168 c-7 -229 -23 -269 -133 -323
-144 -71 -329 -50 -432 50 -112 108 -137 274 -129 833 5 364 10 406 57 502 50
98 153 161 286 174 104 9 188 1 265 -28 122 -46 239 -196 280 -357 12 -51 14
-53 46 -53 l33 0 -5 98 c-3 53 -8 154 -11 225 -6 120 -7 127 -27 127 -11 0
-35 -16 -53 -35 -17 -19 -41 -35 -53 -35 -12 0 -61 20 -109 45 -129 67 -231
87 -369 74z"/>
<path d="M2720 1870 l0 -30 130 0 130 0 0 -770 0 -770 -130 0 -130 0 0 -30 0
-30 420 0 420 0 0 30 0 30 -145 0 -145 0 0 381 0 382 123 -5 c129 -5 163 -15
203 -60 40 -43 61 -103 79 -225 6 -39 9 -43 36 -43 l29 0 0 350 0 350 -29 0
c-27 0 -29 -3 -35 -47 -14 -101 -36 -153 -80 -197 -52 -52 -99 -66 -231 -66
l-95 0 2 358 3 357 170 3 c211 3 358 -10 426 -40 90 -38 143 -125 192 -315 21
-78 23 -83 49 -83 l26 0 -5 118 c-3 64 -8 176 -12 247 l-6 130 -697 3 -698 2
0 -30z"/>
<path d="M571 1283 c18 -32 70 -121 115 -198 46 -77 197 -337 336 -578 139
-240 255 -437 258 -437 3 0 57 91 121 202 l116 201 -138 241 c-77 132 -139
245 -139 250 0 5 118 7 281 5 l281 -4 104 179 c57 98 104 183 104 187 0 5
-331 9 -736 9 l-735 0 32 -57z"/>
</g>
</svg>
